<svg width="37" height="36" viewBox="0 0 37 36" fill="none" xmlns="http://www.w3.org/2000/svg">
<g clip-path="url(#clip0_337_73915)">
<path d="M36.5 18C36.5 8.06133 28.4387 0 18.5 0C8.56133 0 0.5 8.06133 0.5 18C0.5 26.9824 7.08125 34.432 15.6875 35.782V23.2031H11.1172V18H15.6875V14.0344C15.6875 9.52383 18.377 7.03125 22.4867 7.03125C24.4555 7.03125 26.5156 7.38281 26.5156 7.38281V11.8125H24.2445C22.0086 11.8125 21.3125 13.2012 21.3125 14.625V18H26.3047L25.5066 23.2031H21.3125V35.782C29.9188 34.432 36.5 26.9859 36.5 18Z" fill="#1977F3"/>
</g>
<defs>
<clipPath id="clip0_337_73915">
<rect width="36" height="36" fill="white" transform="translate(0.5)"/>
</clipPath>
</defs>
</svg>
