<svg width="37" height="36" viewBox="0 0 37 36" fill="none" xmlns="http://www.w3.org/2000/svg">
<g clip-path="url(#clip0_337_73913)">
<path d="M36.4836 18.3368C36.4836 16.8619 36.3611 15.7856 36.0961 14.6694H18.8594V21.3264H28.9769C28.773 22.9808 27.6715 25.4722 25.2236 27.1463L25.1893 27.3692L30.6392 31.4945L31.0168 31.5313C34.4845 28.4021 36.4836 23.7979 36.4836 18.3368Z" fill="#4285F4"/>
<path d="M18.8594 35.8762C23.8161 35.8762 27.9774 34.2816 31.0168 31.5312L25.2236 27.1462C23.6734 28.2026 21.5927 28.94 18.8594 28.94C14.0046 28.94 9.88412 25.8109 8.4153 21.4858L8.2 21.5037L2.53309 25.7889L2.45898 25.9902C5.47792 31.85 11.6791 35.8762 18.8594 35.8762Z" fill="#34A853"/>
<path d="M8.41452 21.4859C8.02695 20.3698 7.80266 19.1738 7.80266 17.9382C7.80266 16.7023 8.02695 15.5065 8.39412 14.3904L8.38386 14.1527L2.64594 9.79858L2.4582 9.88584C1.21395 12.3175 0.5 15.0481 0.5 17.9382C0.5 20.8282 1.21395 23.5587 2.4582 25.9903L8.41452 21.4859Z" fill="#FBBC05"/>
<path d="M18.8594 6.93605C22.3067 6.93605 24.632 8.39102 25.958 9.60692L31.1392 4.66392C27.9571 1.77389 23.8161 0 18.8594 0C11.6791 0 5.47792 4.02609 2.45898 9.88585L8.39491 14.3904C9.88413 10.0653 14.0046 6.93605 18.8594 6.93605Z" fill="#EB4335"/>
</g>
<defs>
<clipPath id="clip0_337_73913">
<rect width="36" height="36" fill="white" transform="translate(0.5)"/>
</clipPath>
</defs>
</svg>
