<svg width="220" height="57" viewBox="0 0 220 57" fill="none" xmlns="http://www.w3.org/2000/svg">
<g clip-path="url(#clip0_425_59098)">
<path d="M16.2382 18.1333C16.0039 18.6008 15.8873 18.8351 15.5353 18.8351C15.125 18.8351 12.6632 17.2522 9.6151 17.2522C7.2699 17.2522 5.2767 18.4248 5.2767 21.1209C5.2767 27.5713 18.2908 25.7541 18.2908 34.8984C18.2908 40.4083 13.9524 43.2232 8.9111 43.2232C6.0962 43.2232 0 41.5798 0 40.4072C0 40.1157 0.1166 39.9397 0.2354 39.7054L1.056 37.8882C1.232 37.4779 1.408 37.3602 1.584 37.3602C2.112 37.3602 5.1601 39.4117 9.1465 39.4117C11.6677 39.4117 13.8358 38.0048 13.8358 35.1921C13.8358 29.0948 0.8228 30.4423 0.8228 21.5917C0.8228 16.8441 4.5166 13.4429 9.6745 13.4429C11.6677 13.4429 15.0667 14.3812 16.5913 15.2007C17.061 15.435 17.2359 15.6715 17.2359 15.963C17.2359 16.1401 17.0599 16.3172 17.0005 16.5504L16.2382 18.1333Z" fill="#090A0A"/>
<path d="M40.978 14.9664C40.978 14.5561 41.155 14.3218 41.3882 14.2646L44.3197 13.5595C44.7873 13.4429 44.6123 13.5001 45.0226 13.4429C45.4318 13.4429 45.4318 13.9104 45.4318 14.2052V35.0755C45.4318 36.4219 45.4913 37.7122 46.0765 38.9442C46.4285 39.646 47.1907 40.8186 47.1907 41.1728C47.1907 41.4071 46.8981 41.5237 46.6627 41.6403L44.3769 43.0472C44.1416 43.1638 44.025 43.2243 43.9073 43.2243C43.0284 43.2243 42.3837 41.1134 41.7391 39.7637C40.0968 41.1134 36.9321 43.2243 33.5904 43.2243C25.6759 43.2243 25.0312 38.6505 25.0312 34.4309V14.9675C25.0312 14.5572 25.2072 14.3229 25.4415 14.2657L28.3719 13.5606C28.8416 13.444 28.6656 13.5012 29.0748 13.444C29.4851 13.444 29.4851 13.9115 29.4851 14.2063V34.5486C29.4851 37.0676 30.4818 39.2962 34.2922 39.2962C36.1094 39.2962 39.8615 37.3613 40.9747 36.3064V14.9686L40.978 14.9664Z" fill="#090A0A"/>
<path d="M59.5092 41.6964C59.5092 42.1672 59.2749 42.4015 58.8063 42.4015H55.7582C55.2885 42.4015 55.0553 42.1672 55.0553 41.6964V21.5906C55.0553 20.5346 54.8793 18.6008 54.0587 17.1345C53.5912 16.3161 53.4141 15.8453 53.4141 15.6704C53.4724 15.3162 53.7078 15.1424 53.8244 15.083L55.9925 13.7366C56.2279 13.5595 56.4622 13.4429 56.5788 13.4429C57.6348 13.4429 58.6314 17.0773 58.8657 18.3676C60.3892 16.7242 62.5001 13.4429 65.9002 13.4429C67.2488 13.4429 68.7734 13.9104 68.7734 14.4384C68.7734 14.555 68.6568 14.7321 68.5974 14.9092L67.3082 17.8968C67.2488 18.0134 67.1894 18.3071 66.9562 18.3071C66.6636 18.3071 66.1356 17.7791 65.0213 17.7791C62.9698 17.7791 60.9172 20.8294 59.5103 22.3529V41.6975L59.5092 41.6964Z" fill="#090A0A"/>
<path d="M85.0072 42.2841C84.8312 42.6944 84.7718 42.8121 84.2449 42.8121H81.958C81.43 42.8121 81.3717 42.5778 81.2551 42.2841L71.4057 15.553C71.4057 15.4331 71.2891 15.3165 71.2891 15.1427C71.2891 14.9084 71.4057 14.849 71.8171 14.7324L74.6892 13.9701C74.8663 13.9701 75.0412 13.8535 75.2755 13.8535C75.5098 13.8535 75.5109 14.0878 75.6858 14.321L82.1923 33.3741C82.6026 34.6039 82.9557 35.9536 83.2483 37.0657H83.3649C83.6586 35.6588 83.8929 34.8371 84.4209 33.4313L91.3377 14.321C91.5137 14.0867 91.5137 13.8535 91.748 13.8535C91.9823 13.8535 92.1572 13.9701 92.3343 13.9701L95.2064 14.7324C95.6167 14.849 95.7344 14.9095 95.7344 15.1427C95.7344 15.3165 95.6178 15.4342 95.6178 15.553L85.0072 42.2841Z" fill="#090A0A"/>
<path d="M120.065 39.7055C120.123 39.8793 120.242 39.9992 120.242 40.173C120.242 40.8176 115.317 43.2233 110.979 43.2233C103.181 43.1639 98.6094 37.2437 98.6094 28.3326C98.6094 19.4215 102.948 13.4419 110.218 13.4419C120.007 13.4419 120.887 22.9371 120.887 27.9784C120.887 28.8001 120.887 29.2709 120.242 29.2709H103.417C103.417 32.8459 104.824 39.2941 111.508 39.2941C115.318 39.2941 118.366 36.8917 118.717 36.8917C118.893 36.8917 118.952 37.0655 119.069 37.2426L120.065 39.7044V39.7055ZM116.08 25.6365C116.08 22.5862 115.083 17.0774 109.982 17.0774C104.589 17.0774 103.417 22.7039 103.417 25.6365H116.08Z" fill="#090A0A"/>
<path d="M138.183 42.2841C138.007 42.6944 137.948 42.8121 137.421 42.8121H135.134C134.606 42.8121 134.547 42.5778 134.431 42.2841L124.581 15.553C124.581 15.4331 124.465 15.3165 124.465 15.1427C124.465 14.9084 124.581 14.849 124.993 14.7324L127.865 13.9701C128.042 13.9701 128.217 13.8535 128.451 13.8535C128.686 13.8535 128.687 14.0878 128.862 14.321L135.368 33.3741C135.778 34.6039 136.131 35.9536 136.424 37.0657H136.541C136.834 35.6588 137.069 34.8371 137.597 33.4313L144.513 14.321C144.689 14.0867 144.689 13.8535 144.924 13.8535C145.158 13.8535 145.333 13.9701 145.51 13.9701L148.382 14.7324C148.792 14.849 148.91 14.9095 148.91 15.1427C148.91 15.3165 148.794 15.4342 148.794 15.553L138.183 42.2841Z" fill="#090A0A"/>
<path d="M171.835 33.1409C171.835 36.8325 172.011 37.3605 172.538 39.0017C172.773 39.7068 173.594 40.8189 173.594 41.1731C173.594 41.4074 173.3 41.524 173.066 41.6406L170.779 43.0475C170.545 43.1641 170.428 43.2246 170.311 43.2246C169.431 43.2246 168.375 40.1171 168.083 39.2954C167.38 39.94 164.507 43.2246 159.64 43.2246C154.774 43.2246 152.02 40.1743 152.02 34.9592C152.02 25.0504 163.744 24.8733 167.379 24.7567V22.648C167.379 19.2468 166.323 17.3702 162.162 17.3702C158.232 17.3702 155.536 19.2479 155.009 19.2479C154.833 19.2479 154.658 19.1313 154.599 18.9542L153.837 16.9027C153.72 16.609 153.661 16.4352 153.661 16.1404C153.661 15.1449 159.054 13.4443 162.806 13.4443C169.547 13.4443 171.834 16.7256 171.834 21.6503V33.142L171.835 33.1409ZM167.38 28.39C164.8 28.4494 156.417 28.4494 156.417 34.6039C156.417 36.9491 157.707 39.588 160.697 39.588C163.688 39.588 166.442 36.7753 167.381 35.9536V28.39H167.38Z" fill="#090A0A"/>
<path d="M220.001 28.3423C220.001 32.0724 215.305 35.1161 209.515 35.1161C208.662 35.1161 207.827 35.0413 207.028 34.9302L206.397 34.8191L186.913 30.0682C184.946 29.7525 184.946 26.9134 186.913 26.5977L206.397 21.8468L207.028 21.7357C207.826 21.6246 208.662 21.5498 209.515 21.5498C215.306 21.5498 220.001 24.5935 220.001 28.3423Z" fill="#449B35"/>
<path d="M213.563 2.04594C215.786 5.04124 213.828 10.2838 209.178 13.7334C208.493 14.2416 207.778 14.6794 207.07 15.0655L206.497 15.3526L188.018 23.1461C186.251 24.0646 184.559 21.7843 185.95 20.3587L198.768 4.93454L199.208 4.46924C199.782 3.90384 200.409 3.34724 201.094 2.83904C205.744 -0.61056 211.329 -0.96476 213.563 2.04704V2.04594Z" fill="#317C7D"/>
<path d="M213.563 54.6206C215.786 51.6253 213.828 46.3827 209.178 42.9331C208.493 42.4249 207.778 41.9871 207.07 41.601L206.497 41.3139L188.018 33.5204C186.251 32.6019 184.559 34.8822 185.95 36.3078L198.768 51.732L199.208 52.1973C199.782 52.7627 200.409 53.3193 201.094 53.8275C205.744 57.2771 211.329 57.6313 213.563 54.6195V54.6206Z" fill="#4D5DA7"/>
</g>
<defs>
<clipPath id="clip0_425_59098">
<rect width="220" height="56.6654" fill="white"/>
</clipPath>
</defs>
</svg>
