<svg width="28" height="28" viewBox="0 0 28 28" fill="none" xmlns="http://www.w3.org/2000/svg">
<path d="M22.75 12.0995V22.75C22.75 23.4462 22.4734 24.1139 21.9812 24.6062C21.4889 25.0984 20.8212 25.375 20.125 25.375H7.875C7.17881 25.375 6.51113 25.0984 6.01884 24.6062C5.52656 24.1139 5.25 23.4462 5.25 22.75V5.25C5.25 4.55381 5.52656 3.88613 6.01884 3.39384C6.51113 2.90156 7.17881 2.625 7.875 2.625H13.2755C13.7395 2.62541 14.1843 2.81005 14.5122 3.13833L22.2378 10.8617C22.4003 11.0242 22.5292 11.2172 22.617 11.4296C22.7049 11.642 22.7501 11.8696 22.75 12.0995Z" stroke="#090A0A" stroke-width="1.5" stroke-linecap="round" stroke-linejoin="round"/>
<path d="M14 3.0625V9.625C14 10.0891 14.1844 10.5342 14.5126 10.8624C14.8408 11.1906 15.2859 11.375 15.75 11.375H22.3125" stroke="#090A0A" stroke-width="1.5" stroke-linecap="round" stroke-linejoin="round"/>
<path d="M9.625 15.75H18.375" stroke="#090A0A" stroke-width="1.5" stroke-linecap="round" stroke-linejoin="round"/>
<path d="M9.625 20.125H18.375" stroke="#090A0A" stroke-width="1.5" stroke-linecap="round" stroke-linejoin="round"/>
</svg>
