<svg width="28" height="28" viewBox="0 0 28 28" fill="none" xmlns="http://www.w3.org/2000/svg">
<path d="M12.157 9.12686C12.157 9.78376 12.157 10.4191 12.3571 11.0147C10.2623 13.569 4.72971 20.319 4.2143 20.8327C4.11182 20.9282 4.02986 21.0451 3.97375 21.1758C3.91765 21.3064 3.88866 21.4478 3.88867 21.5908C3.88867 22.0194 4.14171 22.433 4.35534 22.6656C4.67682 23.0134 6.04675 24.3315 6.29978 24.0795C7.04852 23.3214 7.19889 23.12 7.50482 22.8066C7.96734 22.3371 7.45712 21.3787 7.61682 20.9899C7.77756 20.6012 7.94867 20.5258 8.22452 20.4644C8.50141 20.4041 8.99193 20.6109 9.37667 20.6152C9.78112 20.6206 9.99889 20.4439 10.2996 20.1521C10.5433 19.9195 10.7186 19.702 10.7238 19.3638C10.7331 18.9104 10.1016 18.3085 10.5724 17.8292C11.0442 17.35 11.7245 18.1426 12.2254 18.0823C12.7263 18.022 13.334 17.2994 13.3973 16.9914C13.4595 16.6834 12.8279 15.8908 12.9254 15.4418C12.9596 15.291 13.2562 14.9367 13.4792 14.8872C13.7032 14.8366 14.6946 15.235 14.9186 15.1844C15.1903 15.1241 15.5066 14.8258 15.7648 14.6599C16.5177 14.9981 17.2032 15.1338 18.0836 15.1338C21.4125 15.1338 24.1109 12.4383 24.1109 9.11717C24.1109 5.79495 21.4125 3.11133 18.0826 3.11133C14.7537 3.11133 12.157 5.80572 12.157 9.12686ZM20.9998 7.95735C20.9998 8.38577 20.8359 8.79664 20.5442 9.09957C20.2524 9.40251 19.8568 9.57269 19.4442 9.57269C19.0317 9.57269 18.636 9.40251 18.3443 9.09957C18.0526 8.79664 17.8887 8.38577 17.8887 7.95735C17.8887 7.52894 18.0526 7.11807 18.3443 6.81513C18.636 6.5122 19.0317 6.34201 19.4442 6.34201C19.8568 6.34201 20.2524 6.5122 20.5442 6.81513C20.8359 7.11807 20.9998 7.52894 20.9998 7.95735Z" stroke="#090A0A" stroke-width="1.5" stroke-linejoin="round"/>
</svg>
