<svg width="28" height="28" viewBox="0 0 28 28" fill="none" xmlns="http://www.w3.org/2000/svg">
<path d="M2.625 8.11816V18.6182C2.62746 19.4296 2.95091 20.2072 3.5247 20.781C4.0985 21.3548 4.87603 21.6782 5.6875 21.6807H7.875V26.0557L13.0002 21.7822C13.0788 21.7166 13.1778 21.6807 13.2802 21.6807H22.3125C23.124 21.6782 23.9015 21.3548 24.4753 20.781C25.0491 20.2072 25.3725 19.4296 25.375 18.6182V8.11816C25.3725 7.3067 25.0491 6.52917 24.4753 5.95537C23.9015 5.38157 23.124 5.05813 22.3125 5.05566H11.2778" stroke="#090A0A" stroke-width="1.5" stroke-linejoin="round"/>
<path d="M6.22168 3.11133L6.22168 7.77799" stroke="#090A0A" stroke-width="1.5"/>
<path d="M8.55566 5.44434L3.889 5.44434" stroke="#090A0A" stroke-width="1.5"/>
</svg>
