<svg width="28" height="28" viewBox="0 0 28 28" fill="none" xmlns="http://www.w3.org/2000/svg">
<path d="M23.0964 19.2658C21.7355 17.5928 20.7758 16.741 20.7758 12.1273C20.7758 7.90214 18.6282 6.39834 16.8615 5.66688C16.7393 5.61553 16.6293 5.53894 16.5386 5.44208C16.4478 5.34522 16.3784 5.23025 16.3347 5.10466C16.0239 4.04496 15.1558 3.11133 14.0006 3.11133C12.8454 3.11133 11.9762 4.04609 11.6687 5.1058C11.6254 5.23146 11.5561 5.34645 11.4653 5.44318C11.3745 5.5399 11.2643 5.61615 11.142 5.66688C9.37298 6.39948 7.22759 7.89874 7.22759 12.1273C7.22533 16.741 6.26454 17.5928 4.90361 19.2658C4.33957 19.9587 4.83353 21.0002 5.81919 21.0002H22.1865C23.1665 21.0002 23.6571 19.9553 23.0964 19.2658Z" stroke="#090A0A" stroke-width="1.5" stroke-linecap="round" stroke-linejoin="round"/>
<path d="M17.1109 21V21.6222C17.1109 22.2823 16.7831 22.9154 16.1997 23.3821C15.6162 23.8489 14.8249 24.1111 13.9998 24.1111C13.1747 24.1111 12.3833 23.8489 11.7999 23.3821C11.2164 22.9154 10.8887 22.2823 10.8887 21.6222V21" stroke="#090A0A" stroke-width="1.5" stroke-linecap="round" stroke-linejoin="round"/>
</svg>
