<svg width="28" height="29" viewBox="0 0 28 29" fill="none" xmlns="http://www.w3.org/2000/svg">
<path d="M23.3337 25V22.6667C23.3337 21.429 22.842 20.242 21.9668 19.3668C21.0917 18.4917 19.9047 18 18.667 18H9.33366C8.09598 18 6.909 18.4917 6.03383 19.3668C5.15866 20.242 4.66699 21.429 4.66699 22.6667V25" stroke="#090A0A" stroke-width="1.5" stroke-linecap="round" stroke-linejoin="round"/>
<path d="M13.9997 4C12.762 4 11.575 4.49167 10.6998 5.36683C9.82467 6.242 9.33301 7.42899 9.33301 8.66667C9.33301 9.90434 9.82467 11.0913 10.6998 11.9665C11.575 12.8417 12.762 13.3333 13.9997 13.3333C15.2374 13.3333 16.4243 12.8417 17.2995 11.9665C18.1747 11.0913 18.6663 9.90434 18.6663 8.66667C18.6663 7.42899 18.1747 6.242 17.2995 5.36683C16.4243 4.49167 15.2374 4 13.9997 4Z" stroke="#090A0A" stroke-width="1.5" stroke-linecap="round" stroke-linejoin="round"/>
</svg>
