<svg width="28" height="28" viewBox="0 0 28 28" fill="none" xmlns="http://www.w3.org/2000/svg">
<path d="M13.9812 6.125C9.71937 6.125 5.3467 8.5925 1.90504 13.5263C1.80672 13.6687 1.75281 13.837 1.75011 14.0099C1.74741 14.1829 1.79604 14.3528 1.88987 14.4982C4.5347 18.6375 8.84787 21.875 13.9812 21.875C19.0585 21.875 23.4604 18.6282 26.111 14.4783C26.2027 14.3358 26.2514 14.17 26.2514 14.0006C26.2514 13.8312 26.2027 13.6653 26.111 13.5228C23.4545 9.422 19.02 6.125 13.9812 6.125Z" stroke="#090A0A" stroke-width="1.5" stroke-linecap="round" stroke-linejoin="round"/>
<path d="M14 18.375C15.1603 18.375 16.2731 17.9141 17.0936 17.0936C17.9141 16.2731 18.375 15.1603 18.375 14C18.375 12.8397 17.9141 11.7269 17.0936 10.9064C16.2731 10.0859 15.1603 9.625 14 9.625C12.8397 9.625 11.7269 10.0859 10.9064 10.9064C10.0859 11.7269 9.625 12.8397 9.625 14C9.625 15.1603 10.0859 16.2731 10.9064 17.0936C11.7269 17.9141 12.8397 18.375 14 18.375Z" stroke="#090A0A" stroke-width="1.5" stroke-linecap="round" stroke-linejoin="round"/>
</svg>
