<svg width="28" height="28" viewBox="0 0 28 28" fill="none" xmlns="http://www.w3.org/2000/svg">
<path d="M24.8891 10.7337V22.3614C24.8891 23.0318 24.6023 23.6748 24.0918 24.1488C23.5813 24.6229 22.8889 24.8892 22.1669 24.8892H5.83355C5.11157 24.8892 4.41916 24.6229 3.90865 24.1488C3.39813 23.6748 3.11133 23.0318 3.11133 22.3614V7.19477C3.11133 6.52436 3.39813 5.88141 3.90865 5.40736C4.41916 4.93331 5.11157 4.66699 5.83355 4.66699H17.2306" stroke="#090A0A" stroke-width="1.5" stroke-linecap="round" stroke-linejoin="round"/>
<path d="M26.2205 2.62501C26.1392 2.53568 26.0405 2.46377 25.9306 2.41363C25.8206 2.36348 25.7017 2.33614 25.5808 2.33326C25.46 2.33038 25.3399 2.35202 25.2277 2.39686C25.1155 2.44171 25.0135 2.50883 24.928 2.59418L24.2414 3.27834C24.1581 3.36171 24.1113 3.47473 24.1113 3.59256C24.1113 3.71039 24.1581 3.82341 24.2414 3.90678L24.8722 4.53521C24.9135 4.57676 24.9625 4.60974 25.0166 4.63225C25.0706 4.65475 25.1285 4.66634 25.1871 4.66634C25.2456 4.66634 25.3036 4.65475 25.3576 4.63225C25.4116 4.60974 25.4607 4.57676 25.5019 4.53521L26.1719 3.86884C26.3378 3.70711 26.4352 3.48787 26.444 3.25639C26.4528 3.02492 26.3736 2.79889 26.2205 2.62501Z" fill="#090A0A"/>
<path d="M22.7519 4.80966L13.0266 14.5125C12.9677 14.5711 12.925 14.6439 12.9025 14.7239L12.4532 16.0632C12.4423 16.0995 12.4414 16.138 12.4507 16.1747C12.4599 16.2114 12.4789 16.2449 12.5056 16.2718C12.5323 16.2986 12.5658 16.3177 12.6025 16.3271C12.6392 16.3365 12.6777 16.3358 12.714 16.3251L14.0528 15.8748C14.1327 15.8523 14.2055 15.8095 14.2642 15.7508L23.9711 6.02955C24.0608 5.93883 24.111 5.81646 24.111 5.68897C24.111 5.56147 24.0608 5.43911 23.9711 5.34839L23.4356 4.80851C23.3447 4.71789 23.2216 4.66699 23.0932 4.66699C22.9648 4.66699 22.8416 4.71789 22.7507 4.80851L22.7519 4.80966Z" fill="#090A0A"/>
</svg>
