<svg width="28" height="29" viewBox="0 0 28 29" fill="none" xmlns="http://www.w3.org/2000/svg">
<path fill-rule="evenodd" clip-rule="evenodd" d="M15.5608 3.07735C15.4765 2.92622 15.32 2.83301 15.1506 2.83301H12.8483C12.6787 2.83301 12.522 2.92639 12.4378 3.07772L11.8459 4.14205C10.696 4.40079 9.62074 4.86433 8.65806 5.49359L7.51278 5.17489C7.34923 5.12926 7.17443 5.17709 7.0546 5.30025L5.42665 6.97343C5.30671 7.0967 5.26021 7.27655 5.30478 7.44475L5.61355 8.61184C4.99382 9.60568 4.53717 10.7172 4.28238 11.9066L3.26508 12.507C3.11804 12.5936 3.02734 12.7544 3.02734 12.9286V15.2948C3.02734 15.4691 3.1182 15.6301 3.26544 15.7167L4.28238 16.315C4.53717 17.5043 4.99382 18.6159 5.61355 19.6097L5.30593 20.7785C5.26154 20.9466 5.30807 21.1263 5.4279 21.2494L7.05586 22.9226C7.1758 23.0459 7.35079 23.0937 7.51445 23.0479L8.65806 22.728C9.62074 23.3572 10.696 23.8208 11.8459 24.0795L12.4398 25.1442C12.5241 25.2953 12.6806 25.3886 12.8501 25.3886H15.1523C15.322 25.3886 15.4786 25.2952 15.5628 25.1439L16.1617 24.0683C17.2983 23.8063 18.3612 23.344 19.3136 22.7193L20.4879 23.0467C20.6514 23.0923 20.8262 23.0445 20.946 22.9213L22.574 21.2481C22.6939 21.1249 22.7404 20.945 22.6959 20.7768L22.3743 19.5623C22.9742 18.5885 23.4181 17.5031 23.67 16.3432L24.7356 15.7146C24.8826 15.628 24.9733 15.4672 24.9733 15.293V12.9268C24.9733 12.7524 24.8824 12.5915 24.7352 12.5049L23.67 11.8784C23.4181 10.7181 22.9739 9.63236 22.3737 8.65827L22.6947 7.44304C22.7391 7.27495 22.6926 7.0953 22.5727 6.97214L20.9448 5.29896C20.8248 5.17569 20.6498 5.12789 20.4862 5.17371L19.3136 5.50222C18.361 4.87738 17.2977 4.41498 16.1608 4.15301L15.5608 3.07735ZM5.48709 13.5297C5.77807 8.96977 9.46891 5.36375 13.9792 5.36375C18.6795 5.36375 22.4899 9.27993 22.4899 14.1108C22.4899 18.9416 18.6795 22.8578 13.9792 22.8578C9.46891 22.8578 5.77807 19.2518 5.48709 14.6919V13.5297Z" fill="#090A0A"/>
</svg>
