<svg width="25" height="25" viewBox="0 0 25 25" fill="none" xmlns="http://www.w3.org/2000/svg">
<path d="M15.278 2.047L5 14.75H11L9.523 22.87C9.52003 22.886 9.52067 22.9025 9.52485 22.9183C9.52903 22.934 9.53667 22.9486 9.54719 22.9611C9.55772 22.9735 9.57088 22.9835 9.58572 22.9902C9.60056 22.9969 9.61671 23.0003 9.633 23C9.65008 23 9.66692 22.996 9.68219 22.9884C9.69747 22.9807 9.71075 22.9697 9.721 22.956L20 10.25H14L15.484 2.129C15.486 2.11287 15.4846 2.09649 15.4797 2.08097C15.4749 2.06545 15.4668 2.05114 15.456 2.039C15.4452 2.02678 15.432 2.01699 15.4172 2.01027C15.4024 2.00354 15.3863 2.00004 15.37 2C15.352 1.99996 15.3343 2.0042 15.3183 2.01237C15.3023 2.02054 15.2885 2.03242 15.278 2.047Z" stroke="#317C7D" stroke-width="1.5" stroke-linecap="round" stroke-linejoin="round"/>
</svg>
