<svg width="25" height="25" viewBox="0 0 25 25" fill="none" xmlns="http://www.w3.org/2000/svg">
<path d="M4.60005 18.313C4.65705 18.107 4.53405 17.822 4.41605 17.616C4.37925 17.5546 4.3392 17.4951 4.29605 17.438C3.28731 15.9076 2.74977 14.1149 2.75005 12.282C2.73305 7.02 7.09605 2.75 12.492 2.75C17.197 2.75 21.125 6.01 22.042 10.337C22.1799 10.9785 22.2496 11.6328 22.25 12.289C22.25 17.558 18.055 21.895 12.66 21.895C11.802 21.895 10.644 21.679 10.013 21.502C9.53156 21.3642 9.05614 21.2061 8.58805 21.028C8.23674 20.8933 7.84698 20.8993 7.50005 21.045L4.32005 22.193C4.25068 22.2229 4.17718 22.2421 4.10205 22.25C4.04236 22.25 3.98327 22.2381 3.92821 22.2151C3.87315 22.192 3.82323 22.1583 3.78135 22.1157C3.73947 22.0732 3.70647 22.0228 3.68427 21.9674C3.66207 21.912 3.65112 21.8527 3.65205 21.793C3.65627 21.7408 3.66599 21.6892 3.68105 21.639L4.60005 18.313Z" stroke="#317C7D" stroke-width="1.5" stroke-linecap="round"/>
<path d="M8 14C8.39782 14 8.77936 13.842 9.06066 13.5607C9.34196 13.2794 9.5 12.8978 9.5 12.5C9.5 12.1022 9.34196 11.7206 9.06066 11.4393C8.77936 11.158 8.39782 11 8 11C7.60218 11 7.22064 11.158 6.93934 11.4393C6.65804 11.7206 6.5 12.1022 6.5 12.5C6.5 12.8978 6.65804 13.2794 6.93934 13.5607C7.22064 13.842 7.60218 14 8 14Z" fill="#317C7D"/>
<path d="M12.5 14C12.8978 14 13.2794 13.842 13.5607 13.5607C13.842 13.2794 14 12.8978 14 12.5C14 12.1022 13.842 11.7206 13.5607 11.4393C13.2794 11.158 12.8978 11 12.5 11C12.1022 11 11.7206 11.158 11.4393 11.4393C11.158 11.7206 11 12.1022 11 12.5C11 12.8978 11.158 13.2794 11.4393 13.5607C11.7206 13.842 12.1022 14 12.5 14Z" fill="#317C7D"/>
<path d="M17 14C17.3978 14 17.7794 13.842 18.0607 13.5607C18.342 13.2794 18.5 12.8978 18.5 12.5C18.5 12.1022 18.342 11.7206 18.0607 11.4393C17.7794 11.158 17.3978 11 17 11C16.6022 11 16.2206 11.158 15.9393 11.4393C15.658 11.7206 15.5 12.1022 15.5 12.5C15.5 12.8978 15.658 13.2794 15.9393 13.5607C16.2206 13.842 16.6022 14 17 14Z" fill="#317C7D"/>
</svg>
