<svg width="25" height="25" viewBox="0 0 25 25" fill="none" xmlns="http://www.w3.org/2000/svg">
<path d="M16.625 13.625L20.75 9.5" stroke="#317C7D" stroke-width="1.5" stroke-linecap="round" stroke-linejoin="round"/>
<path d="M11.375 10.625L14.375 13.625L11.375 10.625Z" fill="#317C7D"/>
<path d="M11.375 10.625L14.375 13.625" stroke="#317C7D" stroke-width="1.5" stroke-linecap="round" stroke-linejoin="round"/>
<path d="M4.25 15.5L9.125 10.625L4.25 15.5Z" fill="#317C7D"/>
<path d="M4.25 15.5L9.125 10.625" stroke="#317C7D" stroke-width="1.5" stroke-linecap="round" stroke-linejoin="round"/>
<path d="M21.875 9.5C22.1734 9.5 22.4595 9.38147 22.6705 9.1705C22.8815 8.95952 23 8.67337 23 8.375C23 8.07663 22.8815 7.79048 22.6705 7.5795C22.4595 7.36853 22.1734 7.25 21.875 7.25C21.5766 7.25 21.2905 7.36853 21.0795 7.5795C20.8685 7.79048 20.75 8.07663 20.75 8.375C20.75 8.67337 20.8685 8.95952 21.0795 9.1705C21.2905 9.38147 21.5766 9.5 21.875 9.5Z" fill="#317C7D" stroke="#317C7D" stroke-width="1.5" stroke-linecap="round" stroke-linejoin="round"/>
<path d="M15.5 15.875C15.7984 15.875 16.0845 15.7565 16.2955 15.5455C16.5065 15.3345 16.625 15.0484 16.625 14.75C16.625 14.4516 16.5065 14.1655 16.2955 13.9545C16.0845 13.7435 15.7984 13.625 15.5 13.625C15.2016 13.625 14.9155 13.7435 14.7045 13.9545C14.4935 14.1655 14.375 14.4516 14.375 14.75C14.375 15.0484 14.4935 15.3345 14.7045 15.5455C14.9155 15.7565 15.2016 15.875 15.5 15.875Z" stroke="#317C7D" stroke-width="1.5" stroke-linecap="round" stroke-linejoin="round"/>
<path d="M10.25 10.625C10.5484 10.625 10.8345 10.5065 11.0455 10.2955C11.2565 10.0845 11.375 9.79837 11.375 9.5C11.375 9.20163 11.2565 8.91548 11.0455 8.7045C10.8345 8.49353 10.5484 8.375 10.25 8.375C9.95163 8.375 9.66548 8.49353 9.4545 8.7045C9.24353 8.91548 9.125 9.20163 9.125 9.5C9.125 9.79837 9.24353 10.0845 9.4545 10.2955C9.66548 10.5065 9.95163 10.625 10.25 10.625Z" stroke="#317C7D" stroke-width="1.5" stroke-linecap="round" stroke-linejoin="round"/>
<path d="M3.125 17.75C3.42337 17.75 3.70952 17.6315 3.9205 17.4205C4.13147 17.2095 4.25 16.9234 4.25 16.625C4.25 16.3266 4.13147 16.0405 3.9205 15.8295C3.70952 15.6185 3.42337 15.5 3.125 15.5C2.82663 15.5 2.54048 15.6185 2.3295 15.8295C2.11853 16.0405 2 16.3266 2 16.625C2 16.9234 2.11853 17.2095 2.3295 17.4205C2.54048 17.6315 2.82663 17.75 3.125 17.75Z" stroke="#317C7D" stroke-width="1.5" stroke-linecap="round" stroke-linejoin="round"/>
</svg>
