<svg width="172" height="106" viewBox="0 0 172 106" fill="none" xmlns="http://www.w3.org/2000/svg">
<g clip-path="url(#clip0_425_59138)">
<path d="M86.027 0C97.3498 0 106.588 14.4001 106.588 32.1583C106.588 34.7765 106.363 37.3374 106.025 39.785L105.687 41.7205L91.2661 101.476C90.3083 107.509 81.69 107.509 80.7322 101.476L66.3113 41.7205L65.9735 39.785C65.6357 37.3374 65.4102 34.7765 65.4102 32.1583C65.4102 14.4001 74.6474 0 86.027 0Z" fill="#449B35"/>
<path d="M6.20872 19.7425C15.3023 12.9257 31.2128 18.9295 41.6849 33.1908C43.2292 35.2938 44.5584 37.4859 45.7302 39.6546L46.5999 41.4121L70.2549 98.084C73.0434 103.506 66.1214 108.695 61.795 104.426L14.976 65.118L13.5629 63.7675C11.8487 62.0058 10.1565 60.084 8.61325 57.981C-1.85671 43.7187 -2.92993 26.5923 6.20872 19.7425Z" fill="#317C7D"/>
<path d="M165.791 19.7425C156.697 12.9257 140.787 18.9295 130.315 33.1908C128.77 35.2938 127.441 37.4859 126.269 39.6546L125.4 41.4121L101.745 98.084C98.9562 103.506 105.878 108.695 110.205 104.426L157.024 65.118L158.437 63.7675C160.151 62.0058 161.843 60.084 163.386 57.981C173.858 43.7187 174.931 26.5923 165.792 19.7425H165.791Z" fill="#4D5DA7"/>
</g>
<defs>
<clipPath id="clip0_425_59138">
<rect width="172" height="106" fill="white"/>
</clipPath>
</defs>
</svg>
