<svg width="390" height="518" viewBox="0 0 390 518" fill="none" xmlns="http://www.w3.org/2000/svg">
<g opacity="0.3" clip-path="url(#clip0_425_59112)">
<path d="M220.299 495.774L220.294 495.794L220.291 495.813C215.692 524.736 174.311 524.736 169.711 495.813L169.708 495.794L169.704 495.774L99.1123 203.778L97.4629 194.344C95.8121 182.402 94.7109 169.914 94.7109 157.151C94.7109 113.842 105.996 74.6511 124.205 46.3029C142.418 17.9493 167.512 0.5 195.137 0.5C222.623 0.5 247.65 17.9483 265.83 46.3026C284.006 74.651 295.292 113.842 295.292 157.151C295.292 169.914 294.19 182.402 292.54 194.344L290.89 203.778L220.299 495.774Z" stroke="#449B35"/>
<path d="M-195.307 96.8779L-195.307 96.8779C-173.231 80.3584 -142.826 79.3325 -111.479 91.178C-80.138 103.021 -47.9244 127.713 -22.3407 162.492C-14.7998 172.744 -8.30635 183.433 -2.57886 194.014L1.6676 202.58L117.461 479.509L117.468 479.527L117.478 479.545C130.883 505.565 97.6091 530.389 76.8588 509.952L76.8445 509.937L76.8291 509.925L-152.354 317.845L-159.253 311.263C-167.631 302.668 -175.897 293.296 -183.432 283.045L-183.835 283.341L-183.432 283.045C-209.011 248.262 -223.097 210.005 -225.218 176.294C-227.34 142.576 -217.494 113.479 -195.307 96.8779Z" stroke="#317C7D"/>
<path d="M585.303 96.8779L585.436 96.9775H585.441C607.535 113.595 617.338 142.644 615.221 176.294C613.1 210.005 599.012 248.262 573.428 283.045L573.831 283.341L573.428 283.045C565.893 293.296 557.627 302.667 549.25 311.263C549.247 311.265 549.245 311.267 549.243 311.269L542.35 317.845L313.167 509.925L313.152 509.937L313.137 509.952C292.387 530.389 259.113 505.565 272.519 479.545L272.528 479.527L272.535 479.509L388.329 202.58L392.575 194.014C398.302 183.433 404.796 172.744 412.337 162.492C437.921 127.713 470.134 103.021 501.475 91.178C532.823 79.3325 563.227 80.3584 585.303 96.8779Z" stroke="#4D5DA7"/>
</g>
<defs>
<clipPath id="clip0_425_59112">
<rect width="842" height="518" fill="white" transform="translate(-226)"/>
</clipPath>
</defs>
</svg>
