<svg width="180" height="47" viewBox="0 0 180 47" fill="none" xmlns="http://www.w3.org/2000/svg">
<g clip-path="url(#clip0_425_59116)">
<path d="M13.2858 14.8366C13.0941 15.2191 12.9987 15.4108 12.7107 15.4108C12.375 15.4108 10.3608 14.1157 7.8669 14.1157C5.9481 14.1157 4.3173 15.0751 4.3173 17.281C4.3173 22.5586 14.9652 21.0718 14.9652 28.5535C14.9652 33.0616 11.4156 35.3647 7.2909 35.3647C4.9878 35.3647 0 34.0201 0 33.0607C0 32.8222 0.0954 32.6782 0.1926 32.4865L0.864 30.9997C1.008 30.664 1.152 30.5677 1.296 30.5677C1.728 30.5677 4.2219 32.2462 7.4835 32.2462C9.5463 32.2462 11.3202 31.0951 11.3202 28.7938C11.3202 23.8051 0.6732 24.9076 0.6732 17.6662C0.6732 13.7818 3.6954 10.999 7.9155 10.999C9.5463 10.999 12.3273 11.7667 13.5747 12.4372C13.959 12.6289 14.1021 12.8224 14.1021 13.0609C14.1021 13.2058 13.9581 13.3507 13.9095 13.5415L13.2858 14.8366Z" fill="#090A0A"/>
<path d="M33.5278 12.2455C33.5278 11.9098 33.6727 11.7181 33.8635 11.6713L36.262 11.0944C36.6445 10.999 36.5014 11.0458 36.8371 10.999C37.1719 10.999 37.1719 11.3815 37.1719 11.6227V28.6984C37.1719 29.8 37.2205 30.8557 37.6993 31.8637C37.9873 32.4379 38.611 33.3973 38.611 33.6871C38.611 33.8788 38.3716 33.9742 38.179 34.0696L36.3088 35.2207C36.1162 35.3161 36.0208 35.3656 35.9245 35.3656C35.2054 35.3656 34.678 33.6385 34.1506 32.5342C32.8069 33.6385 30.2176 35.3656 27.4834 35.3656C21.0079 35.3656 20.4805 31.6234 20.4805 28.171V12.2464C20.4805 11.9107 20.6245 11.719 20.8162 11.6722L23.2138 11.0953C23.5981 10.9999 23.4541 11.0467 23.7889 10.9999C24.1246 10.9999 24.1246 11.3824 24.1246 11.6236V28.2673C24.1246 30.3283 24.94 32.1517 28.0576 32.1517C29.5444 32.1517 32.6143 30.5686 33.5251 29.7055V12.2473L33.5278 12.2455Z" fill="#090A0A"/>
<path d="M48.69 34.1155C48.69 34.5007 48.4983 34.6924 48.1149 34.6924H45.621C45.2367 34.6924 45.0459 34.5007 45.0459 34.1155V17.6653C45.0459 16.8013 44.9019 15.2191 44.2305 14.0194C43.848 13.3498 43.7031 12.9646 43.7031 12.8215C43.7508 12.5317 43.9434 12.3895 44.0388 12.3409L45.8127 11.2393C46.0053 11.0944 46.197 10.999 46.2924 10.999C47.1564 10.999 47.9718 13.9726 48.1635 15.0283C49.41 13.6837 51.1371 10.999 53.919 10.999C55.0224 10.999 56.2698 11.3815 56.2698 11.8135C56.2698 11.9089 56.1744 12.0538 56.1258 12.1987L55.071 14.6431C55.0224 14.7385 54.9738 14.9788 54.783 14.9788C54.5436 14.9788 54.1116 14.5468 53.1999 14.5468C51.5214 14.5468 49.842 17.0425 48.6909 18.289V34.1164L48.69 34.1155Z" fill="#090A0A"/>
<path d="M69.552 34.5959C69.408 34.9316 69.3594 35.0279 68.9283 35.0279H67.0572C66.6252 35.0279 66.5775 34.8362 66.4821 34.5959L58.4235 12.725C58.4235 12.6269 58.3281 12.5315 58.3281 12.3893C58.3281 12.1976 58.4235 12.149 58.7601 12.0536L61.11 11.4299C61.2549 11.4299 61.398 11.3345 61.5897 11.3345C61.7814 11.3345 61.7823 11.5262 61.9254 11.717L67.2489 27.3059C67.5846 28.3121 67.8735 29.4164 68.1129 30.3263H68.2083C68.4486 29.1752 68.6403 28.5029 69.0723 27.3527L74.7315 11.717C74.8755 11.5253 74.8755 11.3345 75.0672 11.3345C75.2589 11.3345 75.402 11.4299 75.5469 11.4299L77.8968 12.0536C78.2325 12.149 78.3288 12.1985 78.3288 12.3893C78.3288 12.5315 78.2334 12.6278 78.2334 12.725L69.552 34.5959Z" fill="#090A0A"/>
<path d="M98.2342 32.4865C98.2819 32.6287 98.3791 32.7268 98.3791 32.869C98.3791 33.3964 94.3498 35.3647 90.8002 35.3647C84.4201 35.3161 80.6797 30.4723 80.6797 23.1814C80.6797 15.8904 84.2293 10.998 90.1774 10.998C98.1865 10.998 98.9065 18.7668 98.9065 22.8916C98.9065 23.5639 98.9065 23.949 98.3791 23.949H84.6136C84.6136 26.8741 85.7647 32.1499 91.2331 32.1499C94.3507 32.1499 96.8446 30.1843 97.1317 30.1843C97.2757 30.1843 97.3234 30.3265 97.4197 30.4714L98.2342 32.4856V32.4865ZM94.9735 20.9754C94.9735 18.4797 94.1581 13.9725 89.9848 13.9725C85.5721 13.9725 84.6136 18.576 84.6136 20.9754H94.9735Z" fill="#090A0A"/>
<path d="M113.06 34.5959C112.916 34.9316 112.867 35.0279 112.436 35.0279H110.565C110.133 35.0279 110.085 34.8362 109.99 34.5959L101.931 12.725C101.931 12.6269 101.836 12.5315 101.836 12.3893C101.836 12.1976 101.931 12.149 102.268 12.0536L104.618 11.4299C104.763 11.4299 104.906 11.3345 105.098 11.3345C105.289 11.3345 105.29 11.5262 105.433 11.717L110.757 27.3059C111.092 28.3121 111.381 29.4164 111.621 30.3263H111.716C111.956 29.1752 112.148 28.5029 112.58 27.3527L118.239 11.717C118.383 11.5253 118.383 11.3345 118.575 11.3345C118.767 11.3345 118.91 11.4299 119.055 11.4299L121.405 12.0536C121.74 12.149 121.837 12.1985 121.837 12.3893C121.837 12.5315 121.741 12.6278 121.741 12.725L113.06 34.5959Z" fill="#090A0A"/>
<path d="M140.592 27.1154C140.592 30.1358 140.736 30.5678 141.167 31.9106C141.359 32.4875 142.031 33.3974 142.031 33.6872C142.031 33.8789 141.79 33.9743 141.599 34.0697L139.728 35.2208C139.536 35.3162 139.44 35.3657 139.345 35.3657C138.625 35.3657 137.761 32.8232 137.522 32.1509C136.947 32.6783 134.596 35.3657 130.614 35.3657C126.633 35.3657 124.379 32.87 124.379 28.6031C124.379 20.4959 133.972 20.351 136.946 20.2556V18.5303C136.946 15.7475 136.082 14.2121 132.677 14.2121C129.462 14.2121 127.256 15.7484 126.825 15.7484C126.681 15.7484 126.538 15.653 126.489 15.5081L125.866 13.8296C125.77 13.5893 125.722 13.4471 125.722 13.2059C125.722 12.3914 130.134 11 133.204 11C138.72 11 140.591 13.6847 140.591 17.714V27.1163L140.592 27.1154ZM136.947 23.2283C134.836 23.2769 127.977 23.2769 127.977 28.3124C127.977 30.2312 129.032 32.3903 131.479 32.3903C133.926 32.3903 136.179 30.089 136.947 29.4167V23.2283H136.947Z" fill="#090A0A"/>
<path d="M180.002 23.1893C180.002 26.2412 176.159 28.7315 171.423 28.7315C170.724 28.7315 170.041 28.6703 169.388 28.5794L168.871 28.4885L152.93 24.6014C151.32 24.3431 151.32 22.0202 152.93 21.7619L168.871 17.8748L169.388 17.7839C170.04 17.693 170.724 17.6318 171.423 17.6318C176.16 17.6318 180.002 20.1221 180.002 23.1893Z" fill="#449B35"/>
<path d="M174.734 1.67413C176.553 4.12483 174.951 8.41423 171.147 11.2366C170.586 11.6524 170.001 12.0106 169.422 12.3265L168.953 12.5614L153.834 18.9379C152.388 19.6894 151.004 17.8237 152.142 16.6573L162.629 4.03753L162.989 3.65683C163.459 3.19423 163.972 2.73883 164.533 2.32303C168.337 -0.499372 172.906 -0.789172 174.734 1.67503V1.67413Z" fill="#317C7D"/>
<path d="M174.734 44.6895C176.553 42.2388 174.951 37.9494 171.147 35.127C170.586 34.7112 170.001 34.353 169.422 34.0371L168.953 33.8022L153.834 27.4257C152.388 26.6742 151.004 28.5399 152.142 29.7063L162.629 42.3261L162.989 42.7068C163.459 43.1694 163.972 43.6248 164.533 44.0406C168.337 46.863 172.906 47.1528 174.734 44.6886V44.6895Z" fill="#4D5DA7"/>
</g>
<defs>
<clipPath id="clip0_425_59116">
<rect width="180" height="46.3626" fill="white"/>
</clipPath>
</defs>
</svg>
