<svg width="36" height="36" viewBox="0 0 36 36" fill="none" xmlns="http://www.w3.org/2000/svg">
<path d="M6.15157 26.7195C6.23557 26.4105 6.05107 25.983 5.87407 25.674C5.81864 25.582 5.75856 25.4929 5.69407 25.407C4.18095 23.1114 3.37465 20.4224 3.37507 17.673C3.35107 9.78 9.89557 3.375 17.9881 3.375C25.0456 3.375 30.9376 8.265 32.3131 14.7555C32.5198 15.7178 32.6244 16.6992 32.6251 17.6835C32.6251 25.587 26.3326 32.0925 18.2401 32.0925C16.9531 32.0925 15.2161 31.7685 14.2696 31.503C13.5473 31.2963 12.8342 31.0591 12.1321 30.792C11.6052 30.5896 11.0204 30.5987 10.5001 30.8175L5.73007 32.5395C5.62599 32.5843 5.51575 32.6131 5.40307 32.625C5.31366 32.6248 5.22518 32.6069 5.14277 32.5722C5.06036 32.5375 4.98565 32.4868 4.92299 32.4231C4.86033 32.3593 4.81097 32.2837 4.77776 32.2007C4.74456 32.1177 4.72818 32.0289 4.72957 31.9395C4.7354 31.8612 4.74948 31.7838 4.77157 31.7085L6.15157 26.7195Z" stroke="#090A0A" stroke-width="2" stroke-linecap="round"/>
<rect x="20" width="16" height="16" rx="8" fill="#D90429"/>
<path d="M28.8983 5.03636V11H27.9956V5.93906H27.9607L26.5338 6.87088V6.00895L28.0218 5.03636H28.8983Z" fill="white"/>
</svg>
