<svg width="24" height="24" viewBox="0 0 24 24" fill="none" xmlns="http://www.w3.org/2000/svg">
<path d="M11.7305 7.78101L12.0005 13.498L12.2685 7.78101C12.2713 7.72606 12.257 7.67159 12.2276 7.62504C12.1983 7.5785 12.1553 7.54217 12.1045 7.52101C12.0706 7.50678 12.0342 7.49964 11.9975 7.50001C11.9614 7.50052 11.9258 7.50824 11.8928 7.52273C11.8597 7.53722 11.83 7.55818 11.8052 7.58437C11.7804 7.61057 11.7611 7.64146 11.7484 7.67524C11.7358 7.70901 11.73 7.74498 11.7315 7.78101H11.7305Z" stroke="#D90429" stroke-width="1.5" stroke-linecap="round" stroke-linejoin="round"/>
<path d="M12.0007 16.6666C11.8238 16.6666 11.6543 16.5964 11.5292 16.4714C11.4042 16.3464 11.334 16.1768 11.334 16C11.334 15.8232 11.4042 15.6536 11.5292 15.5286C11.6543 15.4036 11.8238 15.3333 12.0007 15.3333C12.1775 15.3333 12.347 15.4036 12.4721 15.5286C12.5971 15.6536 12.6673 15.8232 12.6673 16C12.6673 16.1768 12.5971 16.3464 12.4721 16.4714C12.347 16.5964 12.1775 16.6666 12.0007 16.6666Z" fill="#D90429"/>
<path d="M22 12C22 6.47889 17.5211 2 12 2C6.47889 2 2 6.47889 2 12C2 17.5211 6.47889 22 12 22C17.5211 22 22 17.5211 22 12Z" stroke="#090A0A" stroke-width="1.5" stroke-linecap="round" stroke-linejoin="round"/>
</svg>
