<svg width="150" height="150" viewBox="0 0 150 150" fill="none" xmlns="http://www.w3.org/2000/svg">
<circle cx="75" cy="75" r="57.5" stroke="#317C7D"/>
<g filter="url(#filter0_b_664_144100)">
<circle cx="75" cy="75" r="69.75" stroke="#97BDBE" stroke-width="0.5"/>
</g>
<path d="M100.244 84.3197C100.099 83.7996 100.416 83.0796 100.717 82.5595C100.81 82.4057 100.911 82.258 101.022 82.1134C103.613 78.2633 105 73.7288 105.004 69.0878C105.047 55.7884 93.8246 45 79.9467 45C67.8474 45 57.7483 53.2375 55.385 64.1706C55.0306 65.7909 54.8511 67.4446 54.8496 69.1032C54.8496 82.4149 65.6381 93.4926 79.5159 93.4926C81.7222 93.4926 84.6948 92.831 86.3226 92.3848C87.9535 91.9356 89.5689 91.3448 89.9844 91.1848C90.8893 90.8427 91.8905 90.8582 92.7846 91.2278L100.964 94.1296C101.142 94.2034 101.333 94.2527 101.527 94.2711C101.833 94.2711 102.126 94.1495 102.343 93.9331C102.559 93.7167 102.681 93.4232 102.681 93.1172C102.67 92.9857 102.645 92.8557 102.607 92.7295L100.244 84.3197Z" stroke="#317C7D" stroke-linecap="round"/>
<path d="M47.6615 71.5403C45.7703 74.939 44.8556 78.7944 45.0185 82.6804C45.1814 86.5665 46.4156 90.3318 48.5846 93.5603C48.917 94.0649 49.1077 94.4526 49.0462 94.7142C48.9908 94.9758 47.3261 103.638 47.3261 103.638C47.2861 103.841 47.3012 104.05 47.37 104.245C47.4387 104.44 47.5585 104.613 47.7169 104.746C47.8787 104.874 48.0713 104.957 48.2754 104.987C48.4796 105.017 48.688 104.994 48.88 104.918L56.9883 101.745C57.5466 101.525 58.1697 101.535 58.7207 101.773C61.4532 102.838 64.475 103.506 67.4936 103.506C71.5485 103.509 75.5319 102.439 79.0391 100.404" stroke="#317C7D" stroke-linecap="round"/>
<defs>
<filter id="filter0_b_664_144100" x="1" y="1" width="148" height="148" filterUnits="userSpaceOnUse" color-interpolation-filters="sRGB">
<feFlood flood-opacity="0" result="BackgroundImageFix"/>
<feGaussianBlur in="BackgroundImageFix" stdDeviation="2"/>
<feComposite in2="SourceAlpha" operator="in" result="effect1_backgroundBlur_664_144100"/>
<feBlend mode="normal" in="SourceGraphic" in2="effect1_backgroundBlur_664_144100" result="shape"/>
</filter>
</defs>
</svg>
