<svg width="36" height="36" viewBox="0 0 36 36" fill="none" xmlns="http://www.w3.org/2000/svg">
<path d="M16.3333 13L11.3333 18M11.3333 18L16.3333 23M11.3333 18H24.6667M3 18C3 19.9698 3.38799 21.9204 4.14181 23.7403C4.89563 25.5601 6.00052 27.2137 7.3934 28.6066C8.78628 29.9995 10.4399 31.1044 12.2597 31.8582C14.0796 32.612 16.0302 33 18 33C19.9698 33 21.9204 32.612 23.7403 31.8582C25.5601 31.1044 27.2137 29.9995 28.6066 28.6066C29.9995 27.2137 31.1044 25.5601 31.8582 23.7403C32.612 21.9204 33 19.9698 33 18C33 14.0218 31.4196 10.2064 28.6066 7.3934C25.7936 4.58035 21.9782 3 18 3C14.0218 3 10.2064 4.58035 7.3934 7.3934C4.58035 10.2064 3 14.0218 3 18Z" stroke="#090A0A" stroke-linecap="round" stroke-linejoin="round"/>
</svg>
