<svg width="29" height="47" viewBox="0 0 29 47" fill="none" xmlns="http://www.w3.org/2000/svg">
<path d="M29.0016 23.1893C29.0016 26.2412 25.1595 28.7315 20.4228 28.7315C19.7244 28.7315 19.0413 28.6703 18.3879 28.5794L17.8713 28.4885L1.92956 24.6014C0.320356 24.3431 0.320356 22.0202 1.92956 21.7619L17.8713 17.8748L18.3879 17.7839C19.0404 17.693 19.7244 17.6318 20.4228 17.6318C25.1604 17.6318 29.0016 20.1221 29.0016 23.1893Z" fill="#449B35"/>
<path d="M23.7342 1.67413C25.5531 4.12483 23.9511 8.41423 20.1468 11.2366C19.5861 11.6524 19.001 12.0106 18.4223 12.3265L17.9535 12.5614L2.83435 18.9379C1.38805 19.6894 0.00384879 17.8237 1.14235 16.6573L11.6292 4.03753L11.9892 3.65683C12.459 3.19423 12.972 2.73883 13.5327 2.32303C17.337 -0.499372 21.9063 -0.789172 23.7342 1.67503V1.67413Z" fill="#317C7D"/>
<path d="M23.7342 44.6895C25.5531 42.2388 23.9511 37.9494 20.1468 35.127C19.5861 34.7112 19.001 34.353 18.4223 34.0371L17.9535 33.8022L2.83435 27.4257C1.38805 26.6742 0.00384879 28.5399 1.14235 29.7063L11.6292 42.3261L11.9892 42.7068C12.459 43.1694 12.972 43.6248 13.5327 44.0406C17.337 46.863 21.9063 47.1528 23.7342 44.6886V44.6895Z" fill="#4D5DA7"/>
</svg>
